<?xml version="1.0" standalone="no"?>
<!DOCTYPE svg PUBLIC "-//W3C//DTD SVG 20010904//EN"
 "http://www.w3.org/TR/2001/REC-SVG-20010904/DTD/svg10.dtd">
<svg version="1.0" xmlns="http://www.w3.org/2000/svg"
 width="854.000000pt" height="854.000000pt" viewBox="0 0 854.000000 854.000000"
 preserveAspectRatio="xMidYMid meet">
<metadata>
Created by potrace 1.14, written by Peter Selinger 2001-2017
</metadata>
<g transform="translate(0.000000,854.000000) scale(0.100000,-0.100000)"
fill="#000000" stroke="none">
<path d="M1587 7350 c-151 -59 -312 -262 -486 -610 -258 -518 -525 -1359 -675
-2125 -101 -519 -98 -496 -103 -722 -3 -117 -7 -213 -8 -213 -1 0 -41 18 -89
41 -91 42 -181 67 -209 56 -54 -21 40 -193 247 -451 53 -66 95 -121 93 -122
-1 -2 -32 6 -69 16 -102 28 -169 34 -193 17 -19 -15 -19 -15 0 -58 21 -45 192
-226 335 -352 l75 -66 -90 5 c-92 5 -133 -5 -143 -34 -12 -37 190 -193 468
-362 110 -66 151 -99 230 -178 661 -675 1777 -1021 3296 -1022 1066 0 1932
162 2574 481 328 164 569 340 775 568 61 68 98 98 196 158 271 165 469 319
457 355 -10 29 -51 39 -143 34 l-90 -5 75 66 c143 126 314 307 335 352 19 43
19 43 0 58 -24 17 -91 11 -193 -17 -37 -10 -68 -18 -69 -16 -2 1 40 56 93 122
207 258 301 430 247 451 -29 11 -120 -15 -220 -62 -53 -25 -97 -45 -98 -45 -1
0 -5 100 -8 223 -4 189 -9 240 -32 342 -14 66 -35 165 -46 220 -116 587 -222
996 -379 1465 -218 653 -439 1100 -650 1310 -130 130 -219 159 -411 130 -436
-63 -799 -396 -1238 -1132 -46 -76 -87 -138 -92 -138 -5 0 -80 7 -166 15 -588
55 -1378 42 -1969 -31 l-50 -6 -53 93 c-72 126 -209 342 -293 459 -272 381
-534 610 -805 699 -152 51 -341 64 -426 31z m1278 -2094 c268 -70 483 -194
685 -396 249 -249 380 -519 380 -785 0 -402 -315 -847 -756 -1068 -187 -94
-342 -135 -544 -144 -253 -11 -476 36 -695 144 -345 171 -583 458 -682 822
-23 84 -26 116 -27 256 -1 150 1 165 28 245 62 185 161 344 314 502 203 210
430 347 689 417 127 34 187 40 353 36 127 -2 173 -7 255 -29z m3406 18 c427
-72 848 -381 1046 -769 107 -210 132 -355 98 -565 -44 -268 -171 -509 -371
-700 -188 -180 -408 -294 -677 -352 -137 -29 -420 -32 -544 -5 -186 40 -351
110 -514 219 -114 75 -312 269 -386 378 -146 215 -225 462 -208 654 21 247
153 496 384 726 186 185 358 293 586 369 181 60 399 77 586 45z"/>
<path d="M2394 5076 c-55 -13 -190 -64 -222 -84 -10 -7 -8 -18 7 -53 25 -55
26 -102 2 -154 -46 -103 -161 -140 -259 -84 -18 10 -37 19 -42 19 -18 0 -99
-185 -120 -270 -27 -115 -27 -275 0 -388 92 -382 422 -642 816 -642 389 0 716
255 815 635 28 111 28 289 0 400 -76 290 -288 513 -576 605 -89 29 -325 38
-421 16z"/>
<path d="M5875 5070 c-79 -20 -191 -64 -219 -85 -18 -13 -17 -15 5 -46 35 -50
39 -142 7 -189 -13 -19 -39 -45 -58 -58 -50 -34 -142 -28 -194 12 -21 15 -39
26 -41 25 -16 -18 -80 -151 -100 -208 -143 -420 80 -892 495 -1047 119 -45
201 -57 344 -52 101 4 136 10 216 37 227 76 401 230 498 441 52 113 72 193 79
320 20 395 -252 757 -637 850 -112 26 -295 27 -395 0z"/>
</g>
</svg>
