<?xml version="1.0" standalone="no"?>
<!DOCTYPE svg PUBLIC "-//W3C//DTD SVG 20010904//EN"
 "http://www.w3.org/TR/2001/REC-SVG-20010904/DTD/svg10.dtd">
<svg version="1.0" xmlns="http://www.w3.org/2000/svg"
 width="700.000000pt" height="700.000000pt" viewBox="0 0 700.000000 700.000000"
 preserveAspectRatio="xMidYMid meet">
<metadata>
Created by potrace 1.14, written by Peter Selinger 2001-2017
</metadata>
<g transform="translate(0.000000,700.000000) scale(0.100000,-0.100000)"
fill="#000000" stroke="none">
<path d="M70 6481 c0 -74 315 -919 475 -1276 7 -16 34 -79 58 -140 25 -60 77
-189 116 -285 39 -96 76 -184 81 -195 36 -76 115 -332 131 -421 5 -28 22 -93
38 -145 16 -52 27 -107 24 -121 -3 -14 -36 -63 -74 -108 -140 -165 -182 -236
-262 -440 -83 -214 -120 -373 -127 -550 -7 -194 -5 -219 25 -370 4 -19 7 -42
7 -50 0 -44 32 -197 44 -211 8 -9 27 -14 46 -13 18 2 87 5 153 9 194 9 315 15
400 20 44 3 132 7 195 10 63 3 149 7 190 10 41 2 136 7 210 11 74 3 158 8 185
9 54 3 183 7 201 6 10 -1 14 -104 4 -114 -3 -3 -23 -8 -45 -11 -22 -4 -47 -8
-55 -11 -8 -2 -132 -27 -275 -54 -143 -28 -271 -53 -285 -56 -13 -2 -42 -7
-64 -11 -22 -3 -43 -7 -46 -9 -4 -2 -29 -7 -56 -11 -27 -3 -52 -8 -55 -10 -4
-2 -24 -6 -45 -9 -22 -4 -47 -8 -56 -11 -10 -3 -30 -7 -45 -10 -16 -2 -39 -7
-53 -9 -14 -3 -36 -7 -50 -10 -62 -12 -127 -25 -150 -30 -14 -3 -53 -10 -87
-16 l-63 -11 30 -42 c17 -22 37 -49 44 -59 10 -12 23 -16 47 -13 19 3 56 8 82
11 27 4 58 8 70 11 12 2 37 6 57 9 19 2 85 12 145 20 61 9 128 18 150 21 22 3
47 7 55 9 8 2 38 6 65 10 48 6 93 12 145 20 14 2 48 7 75 11 28 3 57 7 65 9 8
1 40 6 70 10 30 4 64 9 75 11 11 2 43 6 70 9 28 3 57 8 65 10 8 2 35 7 60 10
25 3 76 10 113 16 38 6 70 9 72 8 1 -2 6 -29 9 -60 l7 -56 -43 -12 c-24 -7
-79 -23 -123 -36 -106 -32 -596 -175 -615 -180 -60 -15 -416 -120 -420 -123
-3 -3 1 -7 8 -9 7 -3 18 -10 25 -17 26 -25 147 -97 244 -146 111 -57 274 -107
403 -124 25 -3 56 -8 70 -11 14 -2 84 -6 155 -9 72 -3 148 -8 170 -11 22 -2
66 -7 97 -9 78 -7 106 -23 170 -103 93 -113 179 -196 308 -297 115 -89 325
-180 464 -202 21 -3 47 -7 57 -9 38 -8 156 -18 199 -18 113 0 386 49 415 74 5
5 15 9 22 9 20 0 122 51 193 95 134 86 266 206 394 358 58 69 84 84 162 92 32
3 74 8 92 11 19 3 89 7 155 9 351 12 575 82 854 265 45 30 81 55 80 56 -2 2
-651 193 -702 207 -11 3 -112 33 -225 67 -113 34 -217 64 -233 67 -26 5 -27 8
-23 52 2 25 5 51 5 58 1 11 48 10 91 -2 8 -2 43 -7 78 -10 35 -4 76 -10 92
-15 16 -4 30 -6 33 -4 2 3 24 0 48 -5 24 -5 73 -12 109 -16 36 -4 67 -8 70
-10 3 -2 28 -6 55 -9 80 -11 118 -16 145 -21 14 -2 45 -7 70 -10 50 -6 115
-16 145 -21 10 -2 37 -6 60 -9 66 -9 188 -26 215 -30 14 -2 74 -11 134 -20
122 -18 103 -25 166 62 l31 42 -23 5 c-13 3 -45 9 -73 15 -27 6 -147 29 -265
52 -118 22 -291 56 -385 74 -93 19 -183 36 -200 39 -16 3 -41 8 -55 11 -14 3
-59 12 -100 19 -198 37 -306 60 -311 68 -3 5 -5 32 -5 61 1 51 2 52 31 50 58
-2 311 -14 380 -18 39 -2 122 -7 185 -10 63 -3 147 -7 185 -9 39 -3 124 -7
190 -10 66 -4 154 -8 195 -11 69 -4 305 -16 375 -19 27 -1 31 4 41 39 13 46
31 147 39 222 2 28 7 57 10 65 29 83 24 367 -11 548 -18 94 -42 171 -107 335
-55 142 -91 213 -146 290 -37 51 -42 57 -130 159 -28 33 -52 66 -52 75 -4 38
2 69 25 140 21 63 37 131 52 209 11 57 99 313 144 417 9 22 41 99 70 170 29
72 84 204 122 295 38 91 71 170 72 175 2 6 8 21 13 35 36 87 67 159 78 185 48
105 223 570 332 885 14 39 19 107 8 118 -5 6 -57 -25 -87 -51 -16 -13 -59 -52
-98 -87 -38 -34 -80 -71 -92 -82 -38 -33 -151 -132 -162 -143 -6 -6 -54 -48
-106 -94 -52 -47 -139 -124 -192 -173 -53 -49 -114 -104 -136 -123 -21 -19
-54 -49 -73 -67 -20 -18 -62 -55 -94 -83 -32 -27 -63 -54 -69 -60 -6 -5 -45
-37 -86 -69 -41 -33 -77 -63 -80 -66 -15 -17 -372 -310 -447 -367 -247 -187
-539 -348 -853 -470 -63 -25 -122 -46 -130 -48 -8 -2 -33 -10 -56 -18 -105
-38 -345 -99 -481 -122 -18 -3 -47 -7 -65 -10 -81 -14 -162 -11 -283 10 -404
70 -845 232 -1188 434 -43 25 -85 51 -95 56 -131 76 -367 259 -732 569 -14 11
-66 55 -115 96 -93 77 -249 213 -275 240 -8 9 -85 78 -170 155 -85 76 -162
145 -171 154 -9 9 -31 29 -50 45 -19 17 -70 62 -114 100 -44 39 -85 76 -91 81
-6 6 -44 39 -84 75 -74 66 -146 120 -162 120 -4 0 -8 -18 -8 -39z"/>
</g>
</svg>
