<?xml version="1.0" encoding="UTF-8"?>
<svg id="Layer_1" data-name="Layer 1" xmlns="http://www.w3.org/2000/svg" viewBox="0 0 343.19 236.2" width="343.19" height="236.2">
  <path d="m229.71,187.41c-1.7-.09-3.4-.12-5.1-.13-7.62-.07-15.44.42-22.92,1.93s-14.9,3.37-22.34,5.02c-5.77,1.28-11.55,2.62-17.18,4.41-7.19,2.28-14.08,5.82-21,8.85l-21.63,9.48c-2.01.76-4.01,1.67-5.98,2.52-4.66,2.02-9.28,4.1-13.9,6.19-2.39,1.08-4.8,2.12-7.1,3.36-2.41,1.3-4.68,2.83-7.04,4.22-.32.19-.77.17-1.17.25.12-.32.2-.67.37-.96,3.13-5.58,7.09-10.68,9.67-16.59,2.57-5.86,5.39-11.62,7.81-17.54,2.6-6.36,4.71-12.91,6.38-19.6.84-3.35,1.91-6.64,2.78-9.98.6-2.31,1.03-4.66,1.53-6.99.77-3.61,1.63-7.2,2.28-10.83.95-5.29,1.7-10.61,1.66-16.01-.01-1.67-.04-3.34-.03-5.01,0-.38.15-.76.23-1.14.32.2.65.4.96.61,1.12.75,2.25,1.47,3.34,2.26.85.61,1.62,1.33,2.45,1.97,1.89,1.46,3.77,2.93,5.7,4.33,2.43,1.76,4.92,3.45,7.38,5.17,1.8,1.27,3.53,2.66,5.41,3.79,2.69,1.61,5.42,3.17,8.25,4.5,2.58,1.22,5.29,2.15,7.98,3.13,2.6.95,5.2,1.95,7.88,2.63,3,.76,6.08,1.28,9.15,1.72,2.54.36,5.13.6,7.69.63,4.6.06,9.22.07,13.81-.16,2.88-.15,5.75-.7,8.59-1.25,1.27-.24,2.46-.9,3.68-1.39,2.66-1.08,5.34-2.11,7.96-3.27,3.99-1.77,7.97-3.58,11.9-5.48,1.86-.9,3.68-1.92,5.37-3.09,1.53-1.06,2.86-2.42,4.29-3.62,4.45-3.75,8.96-7.43,13.34-11.26,3.26-2.86,6.34-5.92,9.48-8.91,1.64-1.56,3.34-3.08,4.83-4.78,3.69-4.21,7.33-8.47,10.87-12.8,3.32-4.07,6.45-8.28,9.71-12.39,2-2.52,4.22-4.87,6.1-7.47,3.08-4.26,6-8.64,8.92-13.02,2.09-3.14,4.07-6.37,6.09-9.56,1.43-2.25,2.83-4.52,4.27-6.77,2.39-3.72,4.8-7.43,7.19-11.15,1.57-2.44,3.03-4.96,4.69-7.35,3.7-5.32,7.5-10.58,11.26-15.86,2.24-3.15,4.49-6.3,6.75-9.44.25-.34.59-.61.89-.91-.08.39-.16.77-.25,1.16-.35,1.44-1.44,2.45-2.17,3.68-2.33,3.94-4.83,7.8-6.93,11.86-2.49,4.81-4.65,9.79-6.94,14.7-.77,1.64-1.53,3.29-2.22,4.96-.49,1.19-.81,2.45-1.29,3.65-.46,1.14-1.11,2.19-1.52,3.34-1.82,5.21-3.61,10.43-5.36,15.67-.38,1.14-.52,2.36-.86,3.52-.29,1.02-.69,2-1.04,3-.57,1.62-1.19,3.23-1.71,4.88-.39,1.25-.61,2.55-1,3.8-.2.63-.7,1.17-.88,1.81-.41,1.45-.47,3.04-1.11,4.36-.68,1.42-1.01,2.89-1.39,4.37-1.29,4.93-2.43,9.9-3.47,14.89s-2.14,9.91-2.59,14.94c-.13,1.45-.25,2.89-.41,4.34-.37,3.3-.92,6.58-1.19,9.88-.21,2.6-.11,5.22-.18,7.83-.1,3.61-.25,7.22-.32,10.84-.02.94.25,1.88.32,2.83.28,4.13.49,8.27.81,12.39.13,1.68.49,3.35.71,5.03.11.85.03,1.74.24,2.57.71,2.77.56,5.68,1.33,8.46.66,2.39.57,4.94,1.1,7.37.6,2.72,1.14,5.45,1.73,8.17.39,1.82.68,3.67,1.23,5.45.85,2.72,1.71,5.47,2.88,8.05,1.91,4.19,4,8.29,6.17,12.35,1.05,1.96,2.48,3.71,3.72,5.57.16.25.22.56.33.84-.28-.06-.61-.04-.85-.18-2.36-1.4-4.73-2.81-7.06-4.26-3.82-2.38-7.6-4.81-11.41-7.2-3.71-2.34-7.41-4.65-11.07-7.09-1.94-1.3-3.88-2.59-5.79-3.94-3.69-2.6-7.08-5.55-10.68-8.27-1.77-1.33-3.67-2.48-5.55-3.66-2.22-1.39-4.46-2.75-6.72-4.08-1.35-.8-2.73-1.55-4.13-2.26-1.51-.77-3.03-1.54-4.59-2.18-2.16-.88-4.31-1.88-6.56-2.41-3.61-.86-7.19-1.86-10.84-2.56-1.96-.38-3.96-.58-5.97-.69Z"/>
  <path d="m196.27,64.11c-.81.36-1.61.76-2.44,1.07-2.5.93-4.99,1.89-7.51,2.73-5.13,1.72-10.27,3.42-15.43,5.06-4.44,1.41-8.91,2.73-13.37,4.09-.89.27-1.57.56-.97,1.76.2.39-.12,1.06-.27,1.59-.32,1.18-.11,1.58,1.09,1.6,1.11.01,2.21-.18,3.32-.21,1.67-.05,3.35.02,5.02-.06,1.58-.08,3.16-.26,4.74-.43,1.88-.2,3.77-.4,5.65-.66,3.32-.47,6.64-1,9.96-1.47,1.26-.18,2.54-.24,3.8-.44,4.39-.68,8.78-1.38,13.16-2.1,2.66-.43,5.3-.93,7.96-1.35.6-.09,1.22,0,1.84.02-.53.32-1.02.76-1.59.95-4.36,1.44-8.8,2.48-13.34,3.22-5.79.93-11.52,2.19-17.31,3.1-5.16.81-10.37,1.33-15.55,1.96-2.93.36-5.86.73-8.8.99-1.35.12-1.85,1-2.35,2.02-.46.93-.97,1.83-1.45,2.75-.15.29-.29.6-.44.9.28,0,.59-.09.85-.01,3.19.9,6.33-.17,9.49-.27,3.12-.09,6.23-.47,9.34-.73.16-.01.32-.01.47-.02.02.1.04.21.06.31-1.31.25-2.6.54-3.92.74-4.28.66-8.57,1.28-12.85,1.95-1.93.3-3.85.69-5.78,1-.21.03-.47-.16-.7-.25.51-1.04-.36-.73-.74-.68-2.8.34-5.6.77-8.4,1.07-3.33.35-6.68.58-10.01.91-1.19.12-2.37.34-3.53.61-.34.08-.6.51-.9.78.31.11.63.34.93.32,1.78-.13,3.56-.35,5.34-.49,3.44-.27,6.88-.52,10.32-.76,1.07-.07,2.15-.09,3.22-.12.36,0,.71,0,1.07.04.19.02.38.11.57.17-.14.18-.25.39-.42.52-2.39,1.87-5.17,2.98-7.97,4.06-2.01.78-4.01,1.55-6.03,2.32-.82.31-1.38.8-1.74,1.67-1.11,2.7-2.52,5.23-4.36,7.52-2.04,2.53-4.54,4.47-7.52,5.74-1.82.78-3.68,1.74-5.59,1.95-2.91.31-5.88.14-8.82,0-5.51-.27-10.42-2.46-15.21-4.97-.67-.35-1.24-.42-1.91-.16-1.41.54-2.81,1.12-4.25,1.59-1.76.58-3.53,1.13-5.33,1.57-2.65.66-5.34,1.23-8.08,1.14-1.81-.06-3.6-.37-5.4-.58-.55-.06-1.1-.16-1.66-.24.64-.61,1.27-1.38,2.06-1.91.98-.67,2.09-1.13,3.13-1.7,1.64-.88,3.26-1.8,4.91-2.66,2.45-1.28,4.94-2.49,7.38-3.8,2.51-1.35,4.97-2.79,7.47-4.16,1.43-.79,2.92-1.5,4.35-2.29,1.02-.57,1.98-1.23,2.88-2.06-.67.27-1.35.5-2,.81-5.07,2.39-10.16,4.76-15.21,7.19-3.5,1.69-6.96,3.48-10.43,5.23-2.04,1.03-4.07,2.06-6.1,3.1-.83.43-.84.74-.15,1.27.29.23.47.6.69.91-.34.25-.66.56-1.04.74-2.26,1.06-4.56,2.03-6.78,3.15-4.43,2.24-8.85,4.51-13.23,6.86-2.62,1.41-5.13,3.02-7.69,4.53-2.15,1.27-4.32,2.52-6.47,3.81-1.46.88-2.87,1.82-4.32,2.72-.31.19-.67.3-1.01.45-.06-.1-.12-.21-.18-.31,1.79-1.26,3.53-2.62,5.38-3.77,2.27-1.41,4.68-2.6,6.96-3.99,2.26-1.38,4.4-2.94,6.66-4.32,1.79-1.1,3.72-1.98,5.52-3.07,3.33-2.02,6.61-4.12,9.92-6.17.81-.5,1.66-.94,2.45-1.46.27-.18.61-.53.6-.79,0-.23-.45-.47-.73-.64-.46-.27-.95-.48-1.43-.72.43-.29.84-.63,1.3-.84,2.06-.94,4.18-1.77,6.2-2.78,2.94-1.47,5.79-3.1,8.71-4.6,2.11-1.09,4.3-2.03,6.42-3.11,2.71-1.39,5.38-2.84,8.05-4.29,1.6-.87,3.17-1.8,4.67-2.91-.66.23-1.33.43-1.96.71-4.84,2.14-9.7,4.25-14.51,6.47-4.07,1.88-8.11,3.81-12.39,5.21-2.64.86-5.22,1.89-7.83,2.84-.46.17-.92.31-1.38.47.33.39.66.76.97,1.16.39.5.76,1.01,1.14,1.52-.59.24-1.16.54-1.76.71-1.06.29-2.17.41-3.21.76-4.99,1.69-9.97,3.41-14.94,5.16-2.89,1.02-5.77,2.08-8.63,3.19-1.52.59-2.96,1.35-4.47,1.96-4.78,1.93-9.59,3.81-14.37,5.72-1.01.4-1.99.89-3.01,1.29-.26.1-.58.04-.87.05.17-.19.3-.46.51-.56,3.79-1.83,7.54-3.75,11.4-5.43,2.2-.96,4.6-1.45,6.85-2.28,1.67-.62,3.25-1.5,4.89-2.2,5.3-2.27,10.62-4.49,15.92-6.77,1.93-.83,3.83-1.77,5.72-2.68.98-.47,1.93-1.02,2.97-1.57-1.37-1.13-2.64-2.17-4.02-3.31,1.17-.37,2.22-.71,3.28-1.03,3.54-1.07,7.1-2.1,10.63-3.21,1.74-.55,3.46-1.18,5.15-1.86,3.31-1.33,6.6-2.69,9.88-4.1,2.65-1.14,5.27-2.34,7.89-3.54.35-.16.65-.43.97-.67.32-.24.63-.5.94-.74-.39-.01-.77-.04-1.16-.03-3.33.02-6.36,1.12-9.41,2.38-3.71,1.54-7.52,2.82-11.34,4.08-4.31,1.42-8.67,2.7-13.02,4.01-1.55.47-3.13.86-4.7,1.31-.25.07-.47.23-.71.34.15.18.35.33.45.54.26.57.48,1.16.69,1.75.02.06-.12.23-.22.29-1.54.78-3.04,1.56-4.79,1.91-3.18.64-6.33,1.5-9.47,2.34-3.61.96-7.21,1.97-10.8,3-1.99.57-3.96,1.19-5.92,1.87-3.89,1.35-7.77,2.75-11.65,4.16-1.49.54-2.96,1.14-4.45,1.69-.22.08-.48.02-.73.02.13-.19.21-.47.38-.54,1.81-.79,3.64-1.54,5.46-2.32.87-.37,1.72-.79,2.59-1.17,2.09-.92,4.16-1.89,6.29-2.72,1.49-.58,3.08-.91,4.59-1.47,2.57-.95,5.1-2.01,7.66-3,3.07-1.19,6.15-2.37,9.24-3.51,2.42-.89,4.87-1.69,7.29-2.56,1.46-.52,1.64-.95,1.08-2.44-.46-1.22-.94-2.44-1.46-3.64-1.03-2.34-.92-4.84-1.03-7.3-.13-2.91-.32-5.82-.23-8.72.1-3.34-1.05-6.18-2.84-8.89-2.43-3.66-4.75-7.4-7.19-11.05-1.57-2.34-3.34-4.55-4.9-6.89-1.77-2.64-3.4-5.37-5.11-8.05-1.78-2.78-3.6-5.53-5.38-8.3-.6-.93-1.17-1.89-1.69-2.87-.18-.35-.15-.81-.21-1.21.42,0,.9-.15,1.25,0,2.48,1.09,4.94,2.22,7.39,3.36,2.77,1.29,5.52,2.62,8.28,3.93,3.23,1.54,6.47,3.03,9.66,4.64,2.01,1.01,3.91,2.23,5.89,3.31.99.55,2.04,1.01,3.06,1.5,12.67,6.01,25.55,6.88,38.88,2.71,1.65-.52,3.28-1.12,4.9-1.76,1.86-.73,3.71-1.47,5.53-2.3,9.71-4.45,18.78-11.92,24.91-20.67,1.75-2.5,3.46-5.03,5.2-7.54.87-1.27,1.8-2.5,2.63-3.79,1.64-2.55,3.23-5.13,4.86-7.68,2.39-3.74,4.79-7.47,7.22-11.19.27-.41.71-.71,1.07-1.05.13.51.41,1.04.38,1.54-.17,2.91-.4,5.81-.64,8.71-.18,2.18-.38,4.36-.63,6.54-.61,5.22-1.31,10.44-1.89,15.66-.47,4.19-1.09,8.37-.65,12.61.1.93,0,1.89-.04,2.83-.03.85.17,1.5.98,2.01,1.46.92,2.91,1.9,4.21,3.02,1.03.89,1.92,1.98,2.74,3.08,1.33,1.81,2.76,3.59,3.76,5.58,1.08,2.15,1.82,4.49,2.49,6.8.38,1.31.34,2.74.46,4.11.04.52.17.85.79.75,1.51-.25,3.04-.42,4.53-.74,2.9-.62,5.78-1.28,8.66-2.01,3.42-.87,6.82-1.82,10.22-2.75,2.82-.77,5.62-1.58,8.45-2.31,2.36-.61,4.74-1.15,7.11-1.72.05.13.09.26.14.39Zm-50.83,24.06s0,.03,0,.05c2.42-.38,4.84-.74,7.25-1.17.39-.07.87-.4,1.04-.74.49-.99.86-2.04,1.23-3.09.03-.08-.35-.45-.49-.43-1.61.25-3.2.54-4.81.83-5.17.91-10.38,1.68-15.52,2.76-4.93,1.03-9.59,2.91-14.18,4.96-.22.1-.37.33-.55.5.26.04.53.13.78.1,1.29-.18,2.57-.39,3.86-.6,1.88-.31,3.75-.68,5.63-.95,3.84-.55,7.69-1.04,11.54-1.56,1.41-.19,2.81-.42,4.22-.64Zm10.59-11.4q.03-1.67-1.32-1.15c-.56.22-1.1.47-1.68.63-2.5.68-5,1.36-7.51,2.04s-5.09,1.27-7.59,2.04c-2.34.73-4.73,1.29-7.06,2.07s-4.68,1.69-6.96,2.69c-.93.41-1.69.49-2.61.93-.6.29-1.25.43-1.91.52-.5.06-1.2.34-1.68.44-.2.04-.9.78-.95.76.25.08.53.28.76.23,1.52-.33,3.04-.69,4.54-1.1,2.58-.69,5.14-1.42,7.71-2.15,1.41-.4,2.81-.86,4.23-1.21,2.14-.53,4.3-.98,6.44-1.49.72-.17,1.39-.53,2.11-.68,1.57-.34,3.17-.55,4.74-.9,1.48-.33,2.93-.8,4.4-1.17.92-.23,1.85-.44,2.78-.58,1.24-.19,1.91-.74,1.54-1.91Z"/>
  <path d="m195.97,88.1c-6.76.63-13.53,1.27-20.29,1.9-.02-.08-.05-.17-.07-.25.83-.25,1.64-.57,2.49-.74,1.16-.23,2.35-.32,3.52-.51.54-.09,1.05-.31,1.59-.39,1.19-.18,2.39-.29,3.59-.45,1.06-.14,2.11-.37,3.17-.45.81-.06,1.64-.03,2.45.08,1.21.16,2.4.42,3.6.63-.02.06-.03.12-.05.17Z"/>
</svg>
