<?xml version="1.0" encoding="UTF-8" standalone="no"?>
<svg
   xmlns:svg="http://www.w3.org/2000/svg"
   xmlns="http://www.w3.org/2000/svg"
   id="Layer_1"
   data-name="Layer 1"
   viewBox="0 0 341.21954 272.76859"
   width="341.21954"
   height="272.76859"
   version="1.1">
  <path
     d="m 99.396396,197.45393 c 1.681564,0.26542 3.350654,0.58953 5.015584,0.93319 7.46804,1.51582 15.01528,3.62098 22.01787,6.65317 7.0026,3.03218 13.87374,6.39424 20.80811,9.55504 5.37778,2.45168 10.75287,4.96413 15.88768,7.88556 6.55884,3.72506 12.56227,8.62021 18.70108,13.02275 l 19.18633,13.76997 c 1.80807,1.16129 3.57516,2.46723 5.32539,3.70824 4.13818,2.94473 8.22477,5.93983 12.30928,8.94471 2.11322,1.55331 4.25433,3.07165 6.24626,4.76275 2.08705,1.77266 3.98934,3.74118 6.00877,5.59148 0.27351,0.25238 0.71783,0.32638 1.09246,0.48779 -0.0508,-0.33795 -0.0563,-0.69694 -0.16232,-1.01595 -1.90146,-6.10882 -4.71457,-11.92071 -6.00944,-18.23797 -1.29547,-6.26628 -2.85628,-12.48672 -3.99256,-18.7805 -1.22086,-6.76159 -1.92293,-13.60715 -2.16551,-20.49817 -0.12514,-3.45144 -0.48773,-6.89201 -0.64429,-10.33991 -0.10661,-2.38427 -0.0386,-4.77232 -0.0433,-7.15535 -0.003,-3.69121 -0.0974,-7.38156 0.0215,-11.06738 0.17062,-5.37192 0.54309,-10.7316 1.70494,-16.00528 0.357,-1.63143 0.73355,-3.2587 1.07099,-4.89428 0.079,-0.3717 0.0113,-0.77458 0.012,-1.16291 -0.35459,0.1291 -0.71896,0.25612 -1.06585,0.39708 -1.25146,0.50075 -2.50646,0.97007 -3.73689,1.51618 -0.95825,0.41995 -1.86112,0.96412 -2.80605,1.41757 -2.15225,1.03514 -4.2968,2.08215 -6.4757,3.05028 -2.74282,1.21632 -5.52978,2.35169 -8.29363,3.52264 -2.02471,0.86801 -4.00591,1.86794 -6.07976,2.58238 -2.96596,1.01553 -5.96064,1.97384 -9.00532,2.68639 -2.77728,0.65693 -5.62141,1.00316 -8.45639,1.40247 -2.74069,0.38867 -5.49179,0.82624 -8.25461,0.93418 -3.09245,0.11966 -6.21326,-0.0121 -9.30765,-0.21998 -2.55935,-0.17596 -5.14265,-0.4797 -7.65294,-0.98261 -4.51196,-0.8977 -9.03308,-1.84847 -13.47496,-3.02776 -2.78587,-0.74551 -5.47881,-1.8802 -8.14239,-3.00865 -1.19235,-0.4988 -2.21913,-1.39179 -3.31059,-2.12474 -2.37733,-1.60944 -4.78462,-3.17414 -7.10618,-4.85352 -3.53481,-2.56089 -7.05152,-5.15882 -10.5006,-7.83439 -1.63224,-1.26705 -3.2004,-2.64316 -4.61021,-4.13897 -1.27618,-1.35494 -2.29436,-2.96174 -3.44361,-4.43283 -3.573095,-4.59326 -7.219426,-9.13053 -10.70741,-13.78749 -2.594134,-3.47529 -4.970619,-7.10879 -7.420347,-10.68629 -1.279819,-1.86689 -2.626645,-3.70713 -3.730635,-5.67977 -2.733976,-4.88519 -5.408729,-9.8089 -7.971114,-14.78029 -2.40125,-4.67132 -4.587544,-9.440087 -6.921788,-14.138066 -1.432357,-2.880755 -3.115253,-5.640966 -4.4136,-8.575024 C 56.772005,78.042393 54.826468,73.151005 52.88093,68.259616 51.489444,64.753697 50.224267,61.182615 48.911647,57.642343 47.980697,55.144197 47.08325,52.632726 46.142519,50.132501 44.578177,45.996883 42.992194,41.866888 41.427853,37.73127 40.399466,35.018168 39.495308,32.249685 38.368491,29.566779 35.855436,23.593761 33.23209,17.65864 30.652029,11.712273 29.1159,8.165385 27.56999,4.616419 26.012219,1.075155 25.838372,0.690607 25.561938,0.355817 25.330867,0 c -0.0028,0.39811 -0.0036,0.786439 0.0034,1.186629 0.04296,1.481301 0.899148,2.695854 1.357465,4.050751 1.459912,4.338336 3.102742,8.633765 4.31273,13.041659 1.435532,5.22259 2.512931,10.542854 3.732043,15.821677 0.412198,1.764254 0.812536,3.53621 1.140245,5.313176 0.231878,1.265872 0.282916,2.56487 0.502933,3.838445 0.212929,1.210727 0.630417,2.372925 0.792359,3.583038 0.697009,5.474549 1.362594,10.952641 1.984895,16.44198 0.134677,1.194095 0.01796,2.416542 0.109358,3.621883 0.07159,1.058005 0.259098,2.099755 0.393538,3.150671 0.220728,1.703109 0.492441,3.406832 0.658024,5.12889 0.121588,1.30377 0.0665,2.621102 0.188083,3.924872 0.06465,0.657816 0.441447,1.289971 0.48445,1.95341 0.09957,1.503558 -0.172323,3.071287 0.179249,4.495505 0.369905,1.53035 0.387064,3.036838 0.451051,4.563503 0.236805,5.090473 0.318573,10.188881 0.298367,15.286071 -0.02021,5.09718 0.03283,10.13837 -0.572799,15.15202 -0.174312,1.44534 -0.356328,2.87882 -0.501296,4.3304 -0.324194,3.30482 -0.468163,6.62749 -0.890172,9.91152 -0.335159,2.58684 -0.977703,5.1288 -1.451882,7.69632 -0.652746,3.5519 -1.256585,7.1142 -1.940755,10.66965 -0.175874,0.92362 -0.635411,1.78694 -0.901398,2.70162 -1.132556,3.98154 -2.198722,7.98741 -3.368325,11.95084 -0.476451,1.61626 -1.175796,3.17492 -1.740281,4.77247 -0.284321,0.80856 -0.39111,1.69574 -0.769088,2.46394 -1.2704,2.56185 -1.728701,5.43945 -3.059869,7.99861 -1.142487,2.20055 -1.584628,4.71354 -2.608272,6.98024 -1.152408,2.53582 -2.248207,5.09389 -3.390834,7.63178 -0.759876,1.69914 -1.428176,3.44842 -2.33624,5.07517 -1.396945,2.48384 -2.809909,4.99494 -4.490754,7.27531 -2.739412,3.70132 -5.6361785,7.27719 -8.6028803,10.7973 -1.4345619,1.69887 -3.1971584,3.11331 -4.79677722,4.67485 -0.2084815,0.21128 -0.331623,0.50203 -0.49743448,0.75304 0.28635598,-4.8e-4 0.60498648,0.0877 0.86884958,6.6e-4 2.59950472,-0.87874 5.21087002,-1.76518 7.79142582,-2.69906 4.2313536,-1.53377 8.4339776,-3.12476 12.6576286,-4.67039 4.115441,-1.51751 8.214863,-3.00776 12.302188,-4.63348 2.167891,-0.86824 4.333704,-1.72671 6.482646,-2.65009 4.149935,-1.77599 8.079195,-3.95671 12.166046,-5.86879 2.007844,-0.93293 4.105423,-1.66277 6.189676,-2.42611 2.460485,-0.89806 4.934296,-1.76262 7.421432,-2.59367 1.486829,-0.50184 2.992606,-0.94853 4.50963,-1.35194 1.637095,-0.43923 3.283971,-0.87638 4.942945,-1.17805 2.295761,-0.41168 4.60669,-0.94282 6.917715,-0.99343 3.709917,-0.0907 7.419597,-0.32447 11.135374,-0.2503 1.996176,0.0358 3.994054,0.25601 5.983,0.56631 z"
     id="path2" />
  <path
     d="m 157.74117,83.800899 c 0.71745,0.520541 1.4168,1.07813 2.16421,1.553922 2.25201,1.429457 4.48801,2.886179 6.77829,4.23176 4.66029,2.749001 9.33452,5.480518 14.04079,8.157504 4.04982,2.302315 8.14769,4.522835 12.22747,6.780405 0.81442,0.44914 1.41926,0.87418 0.58288,1.92321 -0.27672,0.3399 -0.10301,1.06179 -0.0665,1.61139 0.0677,1.22075 -0.22091,1.56835 -1.39884,1.33842 -1.08782,-0.22101 -2.12428,-0.63556 -3.20379,-0.89568 -1.62311,-0.39612 -3.28095,-0.67694 -4.89783,-1.10241 -1.52884,-0.40675 -3.03688,-0.91132 -4.54701,-1.4061 -1.79734,-0.58651 -3.60445,-1.17509 -5.38932,-1.82028 -3.14973,-1.15 -6.28698,-2.35868 -9.43671,-3.50868 -1.19505,-0.43803 -2.4346,-0.76285 -3.62548,-1.220448 -4.15269,-1.577873 -8.30122,-3.175308 -12.43581,-4.790228 -2.51247,-0.973648 -4.99083,-2.011609 -7.50538,-2.975476 -0.56817,-0.21278 -1.19334,-0.253652 -1.80395,-0.362995 0.45189,0.423201 0.8397,0.955463 1.35774,1.25982 3.96533,2.315028 8.09208,4.255429 12.37902,5.923177 5.47011,2.11349 10.81293,4.53729 16.2872,6.63121 4.87884,1.86512 9.86687,3.45698 14.80269,5.1502 2.79113,0.96131 5.58017,1.93241 8.40187,2.79798 1.29555,0.39806 1.60166,1.36279 1.87866,2.46445 0.25659,1.00532 0.56833,1.99169 0.84656,2.99138 0.0864,0.31485 0.15892,0.64719 0.24327,0.97182 -0.27389,-0.0582 -0.5584,-0.2107 -0.82935,-0.18651 -3.30741,0.21709 -6.15633,-1.48237 -9.22649,-2.23718 -3.0331,-0.73672 -5.99614,-1.75502 -8.98412,-2.65594 -0.15442,-0.043 -0.31093,-0.0763 -0.45557,-0.11729 -0.0403,0.0937 -0.0828,0.1971 -0.12314,0.29075 1.22939,0.51691 2.43091,1.06878 3.68048,1.53885 4.04925,1.53544 8.1166,3.03383 12.16377,4.57905 1.82545,0.69471 3.62241,1.47538 5.44578,2.17988 0.19918,0.073 0.493,-0.0588 0.73668,-0.099 -0.28262,-1.12331 0.50391,-0.6392 0.86521,-0.51129 2.66813,0.91473 5.31754,1.91749 7.99398,2.79308 3.18446,1.0347 6.41343,1.95618 9.60206,2.97131 1.13904,0.3648 2.24752,0.82532 3.32603,1.3306 0.31594,0.14894 0.48085,0.6236 0.71816,0.95008 -0.32609,0.0431 -0.68692,0.20158 -0.97621,0.11965 -1.71407,-0.49724 -3.40943,-1.08252 -5.12143,-1.58954 -3.30869,-0.97932 -6.62154,-1.93907 -9.93647,-2.88904 -1.03206,-0.29094 -2.0843,-0.53505 -3.12468,-0.78686 -0.35214,-0.0748 -0.69449,-0.14762 -1.05494,-0.18334 -0.19001,-0.0199 -0.39457,0.0286 -0.59289,0.0478 0.0995,0.20517 0.16345,0.43345 0.30271,0.59596 1.94898,2.32604 4.43745,3.98978 6.95171,5.62833 1.80391,1.18086 3.60011,2.34986 5.41588,3.52301 0.73763,0.47372 1.18351,1.06944 1.35476,1.99528 0.52439,2.87178 1.37756,5.63965 2.70123,8.26216 1.46941,2.89885 3.51143,5.31624 6.16226,7.17806 1.61806,1.14136 3.23782,2.4671 5.06242,3.06962 2.78195,0.90825 5.7224,1.35946 8.62726,1.83378 5.44573,0.88149 10.70376,-0.2398 15.91094,-1.69906 0.72813,-0.20305 1.30023,-0.15301 1.90153,0.24061 1.26692,0.82136 2.51574,1.67976 3.82655,2.43888 1.60095,0.93325 3.21792,1.83923 4.8871,2.64386 2.45487,1.19654 4.96758,2.31337 7.66642,2.79502 1.78292,0.31763 3.59826,0.38656 5.40258,0.55539 0.55046,0.0557 1.10923,0.0722 1.67363,0.11038 -0.49919,-0.72973 -0.95533,-1.61389 -1.61788,-2.29656 -0.81928,-0.85911 -1.80938,-1.53984 -2.70815,-2.31361 -1.4212,-1.20175 -2.81452,-2.43846 -4.24966,-3.62272 -2.13033,-1.76142 -4.31435,-3.46267 -6.42866,-5.25135 -2.17447,-1.84236 -4.28132,-3.76235 -6.44185,-5.6222 -1.2345,-1.07005 -2.54433,-2.07432 -3.77883,-3.14437 -0.8792,-0.76961 -1.681,-1.61479 -2.38876,-2.61377 0.59922,0.4034 1.21654,0.76975 1.78788,1.20812 4.4623,3.39189 8.94832,6.76837 13.38274,10.19522 3.07215,2.38076 6.08438,4.85102 9.1147,7.28423 1.78128,1.43163 3.55277,2.86119 5.32218,4.30052 0.72246,0.59317 0.66779,0.89848 -0.11733,1.27344 -0.33148,0.16467 -0.58447,0.48917 -0.86412,0.74665 0.28059,0.31523 0.52915,0.68498 0.86342,0.94006 1.99023,1.50671 4.03829,2.93371 5.97692,4.4908 3.86747,3.1121 7.71892,6.25147 11.51462,9.46077 2.26959,1.92391 4.39,4.02059 6.58011,6.02985 1.83897,1.68926 3.70166,3.36311 5.53647,5.07193 1.24514,1.16432 2.42889,2.37693 3.66008,3.55874 0.26373,0.2503 0.59299,0.43274 0.89437,0.65016 0.0795,-0.0853 0.16104,-0.18047 0.24052,-0.26581 -1.48891,-1.60462 -2.90813,-3.29667 -4.47861,-4.80618 -1.92724,-1.85114 -4.03716,-3.51621 -5.97834,-5.34987 -1.92369,-1.81973 -3.69259,-3.79057 -5.61628,-5.61029 -1.52218,-1.44813 -3.22704,-2.71016 -4.76109,-4.15059 -2.83725,-2.6682 -5.60896,-5.40426 -8.42041,-8.09765 -0.68834,-0.65748 -1.42828,-1.26459 -2.09291,-1.93748 -0.22667,-0.2322 -0.48647,-0.64524 -0.42263,-0.89748 0.0478,-0.22498 0.53788,-0.36617 0.84711,-0.47424 0.50608,-0.16846 1.02903,-0.272 1.54844,-0.40696 -0.3603,-0.37306 -0.69066,-0.79087 -1.09694,-1.09192 -1.81955,-1.34776 -3.72066,-2.6004 -5.48652,-4.00831 -2.57013,-2.04913 -5.01895,-4.23606 -7.56327,-6.31039 -1.83727,-1.50487 -3.78398,-2.87966 -5.63311,-4.37683 -2.36178,-1.92307 -4.67196,-3.8965 -6.98214,-5.86994 -1.38416,-1.18365 -2.72649,-2.41975 -3.96293,-3.81736 0.59776,0.3622 1.21153,0.69713 1.76955,1.10199 4.28931,3.09953 8.60441,6.17387 12.84774,9.34542 3.59018,2.68511 7.14063,5.4129 11.03602,7.67217 2.40351,1.3901 4.71298,2.934 7.06843,4.40589 0.4146,0.26192 0.83544,0.4945 1.25213,0.74665 -0.40388,0.31286 -0.80359,0.60617 -1.18998,0.93297 -0.48544,0.40799 -0.95339,0.82992 -1.43112,1.24977 0.52721,0.35742 1.02238,0.76938 1.57392,1.06041 0.97655,0.50405 2.03734,0.85221 2.98184,1.41079 4.52959,2.69055 9.04316,5.40836 13.54071,8.15344 2.61477,1.59857 5.21145,3.2342 7.77817,4.91457 1.36412,0.89313 2.61464,1.93592 3.96481,2.84653 4.27428,2.88164 8.5883,5.72062 12.86673,8.5827 0.90476,0.60125 1.76147,1.28429 2.67602,1.88762 0.23353,0.15187 0.55901,0.15972 0.84059,0.22979 -0.12678,-0.22119 -0.1978,-0.51232 -0.38242,-0.6538 -3.3267,-2.57799 -6.59557,-5.2357 -10.02193,-7.68153 -1.95233,-1.39643 -4.198,-2.37471 -6.22627,-3.65437 -1.5046,-0.95367 -2.86711,-2.14294 -4.32573,-3.16861 -4.71223,-3.32233 -9.45441,-6.59991 -14.16455,-9.93202 -1.71526,-1.21313 -3.3783,-2.52762 -5.0378,-3.81069 -0.86087,-0.66348 -1.67576,-1.39898 -2.57868,-2.15319 1.575,-0.82047 3.03348,-1.57369 4.62034,-2.40186 -1.0675,-0.60517 -2.02387,-1.15605 -2.99417,-1.68944 -3.24018,-1.78263 -6.50824,-3.53029 -9.73032,-5.34996 -1.58762,-0.89975 -3.13905,-1.87359 -4.65074,-2.8901 -2.96115,-1.98912 -5.89649,-4.00343 -8.81166,-6.06457 -2.35507,-1.66606 -4.66833,-3.38456 -6.98158,-5.10307 -0.30908,-0.22927 -0.54639,-0.55574 -0.8095,-0.85703 -0.26311,-0.30129 -0.51228,-0.62006 -0.76561,-0.91927 0.38356,0.0713 0.7615,0.12097 1.14089,0.21184 3.25308,0.71191 5.98816,2.41784 8.70954,4.28444 3.30875,2.2777 6.76936,4.32187 10.24392,6.34856 3.92058,2.28507 7.91917,4.44359 11.90175,6.62938 1.41841,0.78199 2.8828,1.49197 4.32493,2.25856 0.22999,0.12045 0.41191,0.32269 0.6238,0.48019 -0.18415,0.14488 -0.41097,0.25002 -0.55244,0.43464 -0.37283,0.50348 -0.71069,1.03485 -1.03877,1.56829 -0.032,0.0545 0.0696,0.24993 0.1549,0.32941 1.34418,1.08314 2.64923,2.15796 4.28821,2.86416 2.97745,1.28717 5.87981,2.7833 8.77655,4.25779 3.33152,1.68958 6.64286,3.42599 9.94026,5.17989 1.828,0.97128 3.62605,1.98732 5.40184,3.05997 3.52431,2.12927 7.02845,4.30538 10.5305,6.49126 1.34517,0.83799 2.6583,1.73051 4.00139,2.57828 0.19856,0.12399 0.46535,0.11936 0.70989,0.17134 -0.0877,-0.21288 -0.10769,-0.50339 -0.25942,-0.60721 -1.6062,-1.14905 -3.24028,-2.26314 -4.85834,-3.4045 -0.77406,-0.5428 -1.51816,-1.13034 -2.29014,-1.68292 -1.85305,-1.33443 -3.67614,-2.71361 -5.58703,-3.96833 -1.33685,-0.87711 -2.82349,-1.53048 -4.18407,-2.39219 -2.31632,-1.46357 -4.57065,-3.02643 -6.86887,-4.52705 -2.7555,-1.80228 -5.52286,-3.59686 -8.30832,-5.3544 -2.18207,-1.3737 -4.4122,-2.6656 -6.59844,-4.01973 -1.31998,-0.81219 -1.40664,-1.27022 -0.54909,-2.61123 0.7036,-1.0977 1.42676,-2.19124 2.18489,-3.2569 1.49401,-2.07472 1.90619,-4.54296 2.52525,-6.92633 0.73218,-2.81938 1.52305,-5.62629 2.03796,-8.48163 0.59661,-3.2878 2.31195,-5.82664 4.62628,-8.10526 3.13785,-3.0748 6.18474,-6.25072 9.3303,-9.31365 2.02221,-1.96245 4.21301,-3.75615 6.22544,-5.72067 2.2802,-2.21431 4.44218,-4.54575 6.67202,-6.81166 2.3191,-2.34917 4.67108,-4.66068 6.9881,-7.000061 0.78025,-0.78493 1.53739,-1.605442 2.24978,-2.455913 0.24883,-0.304928 0.31513,-0.761113 0.45698,-1.139897 -0.41082,-0.08732 -0.84914,-0.333843 -1.22268,-0.25989 -2.65243,0.55056 -5.29362,1.144404 -7.9271,1.750109 -2.97767,0.685895 -5.9441,1.415074 -8.91615,2.122611 -3.4796,0.834793 -6.95859,1.618599 -10.41362,2.530181 -2.17607,0.57002 -4.2882,1.36833 -6.44948,2.01307 -1.08271,0.33214 -2.20541,0.56378 -3.30499,0.83101 -13.64268,3.24442 -26.42211,1.41751 -38.59382,-5.432829 -1.50583,-0.851691 -2.97547,-1.777476 -4.427,-2.740307 -1.66758,-1.100764 -3.3233,-2.20923 -4.93096,-3.399491 -8.57261,-6.37158 -15.89131,-15.564101 -20.06812,-25.397392 -1.19198,-2.809214 -2.3386,-5.639456 -3.51872,-8.456373 -0.58694,-1.423131 -1.24088,-2.81961 -1.78454,-4.253987 -1.07399,-2.835252 -2.09283,-5.689452 -3.15704,-8.522625 -1.56018,-4.155181 -3.13222,-8.302659 -4.73569,-12.446594 -0.17886,-0.457177 -0.54687,-0.842102 -0.82831,-1.24952 -0.23319,0.471826 -0.61727,0.932029 -0.69188,1.42734 -0.43874,2.881755 -0.81671,5.766203 -1.1849,8.65273 -0.27718,2.169786 -0.5348,4.34373 -0.74351,6.528069 -0.48863,5.232757 -0.88922,10.484226 -1.40719,15.710745 -0.41143,4.196157 -0.67404,8.413719 -1.98598,12.469584 -0.29117,0.888886 -0.39295,1.848699 -0.54926,2.776474 -0.14738,0.837663 -0.47815,1.431876 -1.37649,1.762323 -1.61937,0.596345 -3.24144,1.253457 -4.74589,2.078698 -1.19253,0.656402 -2.28971,1.537541 -3.32049,2.443016 -1.67726,1.493925 -3.44609,2.937714 -4.83799,4.676316 -1.50341,1.878473 -2.71375,4.013483 -3.84938,6.133703 -0.64406,1.202367 -0.90225,2.609435 -1.30447,3.92455 -0.14724,0.50032 -0.34301,0.79608 -0.92867,0.56936 -1.42502,-0.55849 -2.88624,-1.042875 -4.27715,-1.665671 -2.70772,-1.209395 -5.38757,-2.453759 -8.05286,-3.766592 -3.16438,-1.562046 -6.29257,-3.198186 -9.42491,-4.814763 -2.59828,-1.339485 -5.16869,-2.713937 -7.78507,-4.016375 -2.1816,-1.087342 -4.39732,-2.110371 -6.59702,-3.160666 -0.0759,0.116764 -0.14209,0.235606 -0.21803,0.35237 z m 44.71688,34.102381 c 0,0 -0.006,0.0293 -0.0104,0.0489 -2.28811,-0.87484 -4.58038,-1.73012 -6.84831,-2.65179 -0.36693,-0.14956 -0.76783,-0.57214 -0.86342,-0.94006 -0.27346,-1.07024 -0.41707,-2.17422 -0.56068,-3.27821 -0.0127,-0.0845 0.43591,-0.36739 0.5687,-0.31872 1.52284,0.57927 3.0178,1.19351 4.53232,1.81191 4.86782,1.96502 9.80388,3.80142 14.60701,5.92648 4.60812,2.0325 8.77542,4.84028 12.8389,7.7998 0.1944,0.14356 0.2933,0.39972 0.43402,0.60343 -0.26263,-0.0149 -0.54545,0.017 -0.78375,-0.0644 -1.22438,-0.44427 -2.43275,-0.91581 -3.6509,-1.38943 -1.77446,-0.6941 -3.52667,-1.44481 -5.30945,-2.09978 -3.64174,-1.33636 -7.30573,-2.61612 -10.96348,-3.92521 -1.33969,-0.47901 -2.66128,-0.99506 -3.99472,-1.5034 z m -7.98839,-13.35267 q 0.31787,-1.63974 1.53026,-0.85042 c 0.50202,0.33162 0.97824,0.68843 1.5123,0.96552 2.30399,1.18492 4.60798,2.36984 6.92175,3.55684 2.31377,1.187 4.71472,2.30052 7,3.57347 2.13709,1.20056 4.35843,2.24523 6.47535,3.49262 2.11691,1.24739 4.22636,2.6261 6.24862,4.07828 0.82443,0.5944 1.55119,0.83067 2.35961,1.45233 0.52659,0.40841 1.13328,0.68049 1.76015,0.90575 0.47659,0.16264 1.10308,0.58206 1.5518,0.77968 0.18732,0.0807 0.71816,0.95007 0.77123,0.9409 -0.26117,0.0263 -0.57663,0.16369 -0.79121,0.067 -1.41818,-0.63881 -2.83011,-1.30697 -4.21209,-2.01988 -2.38016,-1.21133 -4.73244,-2.45763 -7.09451,-3.70601 -1.29602,-0.68442 -2.56979,-1.42544 -3.88599,-2.06303 -1.98304,-0.96335 -4.00228,-1.8526 -5.98948,-2.79639 -0.66892,-0.31598 -1.24943,-0.80741 -1.92251,-1.10383 -1.465,-0.659 -2.98638,-1.19706 -4.4493,-1.86584 -1.37905,-0.6305 -2.69964,-1.3917 -4.06059,-2.05924 -0.85208,-0.41625 -1.7181,-0.81502 -2.59867,-1.14532 -1.1734,-0.44366 -1.7144,-1.12094 -1.10923,-2.18845 z"
     id="path4" />
  <path
     d="m 153.04681,107.32903 c 6.48129,2.02172 12.97029,4.0553 19.45158,6.07701 0.0362,-0.0741 0.0842,-0.15589 0.12045,-0.22998 -0.75988,-0.41711 -1.48565,-0.89852 -2.28173,-1.24153 -1.08683,-0.46615 -2.23212,-0.8016 -3.33705,-1.23071 -0.50948,-0.2003 -0.9626,-0.52153 -1.47417,-0.71205 -1.12657,-0.42348 -2.27747,-0.78057 -3.41799,-1.18657 -1.00772,-0.35733 -1.98696,-0.80061 -3.00716,-1.09925 -0.77983,-0.2271 -1.59793,-0.37032 -2.4131,-0.43113 -1.21682,-0.0951 -2.43487,-0.0882 -3.65231,-0.13225 0.007,0.0628 0.004,0.12362 0.0136,0.17668 z"
     id="path6"/>
</svg>
