<svg xmlns="http://www.w3.org/2000/svg" width="670.251" height="764.561" viewBox="0 0 177.337 202.29"><path d="M155.212.003c6.986.14 14.916 25.77 17.242 40.577.462 1.856.693 3.775.693 5.746q-.001.58-.019 1.157l.001.032h-.002q-.02.699-.067 1.393c1.984-1.017 3.74-1.724 4.165-1.305.693.685-1.94 4.228-4.767 7.623 1.883-.581 3.438-.896 3.739-.467.512.731-2.393 3.516-5.63 6.277 1.666-.212 2.94-.224 3.126.191.394.88-3.825 3.609-8 6.045-7.773 8.917-22.04 14.773-44.706 14.773-24.134 0-38.063-6.089-45.359-14.995-4.045-2.377-8-4.97-7.617-5.823.186-.415 1.46-.403 3.125-.19-3.236-2.762-6.141-5.547-5.629-6.278.3-.43 1.856-.115 3.74.467-2.828-3.395-5.461-6.938-4.768-7.623.444-.438 2.342.356 4.434 1.446a42 42 0 0 1-.087-2.723c0-2.359.32-4.662.973-6.878C72.335 24.507 80.04.138 86.853.003c6.534-.13 12.166 3.828 19.583 16.965 4.428-.507 9.27-.75 14.55-.69 5.25.059 10.075.389 14.493.958C142.97 3.886 148.634-.128 155.212.003" style="display:inline;fill:#000500;fill-opacity:1;stroke-width:.2645829"/><path d="M127.88 41.062c.053 5.894 6.51 13.026 14.54 13.026s14.242-5.838 14.54-13.026c.23-5.513-6.51-13.027-14.54-13.027s-14.59 7.514-14.54 13.027" style="display:inline;fill:#fff;fill-opacity:1;stroke-width:.25352514"/><circle cx="-142.42" cy="39.133" r="8.987" style="display:inline;fill:#000;fill-opacity:1;stroke-width:.42182282" transform="scale(-1 1)"/><path d="M115.851 41.062c-.053 5.894-6.51 13.026-14.54 13.026S87.069 48.25 86.77 41.062c-.23-5.513 6.51-13.027 14.54-13.027s14.59 7.514 14.54 13.027" style="display:inline;fill:#fff;fill-opacity:1;stroke-width:.25352514"/><circle cx="101.311" cy="39.133" r="8.987" style="display:inline;fill:#000;fill-opacity:1;stroke-width:.42182282"/><circle cx="-148.449" cy="32.659" r="2" style="display:inline;opacity:1;vector-effect:none;fill:#fff;fill-opacity:1;stroke-width:.23996601;stroke-linecap:butt;stroke-linejoin:miter;stroke-miterlimit:4;stroke-dasharray:none;stroke-dashoffset:0;stroke-opacity:1" transform="scale(-1 1)"/><circle cx="-107.177" cy="32.897" r="1.838" style="display:inline;opacity:1;vector-effect:none;fill:#fff;fill-opacity:1;stroke-width:.23996601;stroke-linecap:butt;stroke-linejoin:miter;stroke-miterlimit:4;stroke-dasharray:none;stroke-dashoffset:0;stroke-opacity:1" transform="scale(-1 1)"/><path d="M24.334 1.318c3.266.342 6.542 1.205 9.33 2.991 3.37 2.245 5.8 5.735 7.095 9.543 1.498 4.36 1.593 9.247-.025 13.587-.292.78-.876 1.575-1.752 1.71-1.05.191-2.128-.52-2.474-1.507-.854-1.648-1.19-3.493-1.836-5.22-.84-2.614-1.722-5.282-3.372-7.513-2.262-2.899-6.047-4.599-9.72-4.172-2.565.353-4.837 2.04-6.13 4.252C13.068 18.472 11.73 22.6 11.3 26.78c-.37 3.174-.628 6.379-.395 9.574.111 1.897.18 3.796.15 5.696.014 3.344.427 6.667.77 9.988.406 3.662 1.216 7.26 2.015 10.852 1.296 5.583 3.016 11.109 5.664 16.21.86 1.605 1.739 3.222 2.917 4.621.747.841 1.763 1.484 2.898 1.605 1.383.171 2.77-.066 4.146-.202 8.809-1.002 17.576-2.405 26.424-3.037 4.052-.272 8.11-.451 12.165-.664 7.76-.389 15.518-.821 23.269-1.37a526 526 0 0 0 17.808-1.557c4.217-.416 8.48-.86 12.709-.34 3.31.417 6.6 1.503 9.284 3.528 3.047 2.31 5.181 5.711 6.183 9.383 1.463 4.991 2.445 10.16 2.484 15.374.011 3.83-.642 7.63-1.563 11.337-.867 3.53-1.905 7.015-2.891 10.512-2.03 7.076-4.09 14.163-5.376 21.42-1.771 9.64-2.998 19.37-4.234 29.09-.893 7.101-1.74 14.21-2.655 21.308-.1.564-.355 1.112-.78 1.503-.312.133-.56-.19-.784-.354-.856-.774-1.302-1.867-1.828-2.869-1.628-3.333-2.889-6.83-4.066-10.343-2.546-8.025-4.106-16.328-5.18-24.668-.397-3.023-.774-6.048-1.15-9.074-.147-.307-.706-.11-.627.223l-4.02 46.097c-.2.495-.507.95-.915 1.297-1.173-.557-1.877-1.718-2.447-2.832-3.355-6.224-6.707-12.48-9.247-19.093-1.76-4.513-2.743-9.282-3.482-14.056-.596-3.89-1.167-7.784-1.858-11.658-.565-3.18-1.208-6.347-2-9.478a.9.9 0 0 0-.74-.857c-.905-.31-1.868-.365-2.798-.562-7.285-1.187-14.692-1.442-22.06-1.222-3.059.132-6.137.571-9.007 1.676-1.098.606-1.706 1.767-2.2 2.87-1.07 2.612-1.503 5.419-2.021 8.177-.597 3.421-1.16 6.88-2.425 10.132-1.431 3.94-3.136 7.815-3.925 11.953-.496 3.12-.085 6.281.205 9.4l1.263 12.648c-.209 1.099-1.674 1.703-2.596 1.07-1.862-1.715-3.048-3.997-4.148-6.24-3.351-6.88-5.952-14.09-8.375-21.338-.42-1.241-.839-2.483-1.32-3.701-.619-.737-1.937-.554-2.386.277-1.974 2.643-3.838 5.365-5.73 8.067-1.453 2.114-2.847 4.271-4.129 6.494-.768 2.277-.679 4.724-.454 7.083q.519 5.193 1.056 10.383c-.137 1.06-1.65 1.568-2.407.82-1.048-.994-1.95-2.133-2.805-3.295-2.53-3.549-4.117-7.713-4.866-11.992C.537 175.58.077 164.163 1.186 152.926c.753-8.655 1.696-17.296 2.15-25.974.193-3.76.303-7.524.23-11.288-.096-5.735-.455-11.46-.73-17.187-.745-14.305-1.519-28.61-2.188-42.918-.247-5.565-.482-11.13-.64-16.699-.074-5.94.401-11.93 1.976-17.676 1.158-4.218 2.886-8.33 5.505-11.858 2.115-2.823 4.965-5.125 8.254-6.433 2.715-1.11 5.661-1.628 8.591-1.575" style="display:inline;fill:#000;stroke:none;stroke-width:.65925956"/></svg>