<!--
Created with Inkscape (http://www.inkscape.org/)
Copyright 2024 Mikael Arvola
-->
<svg xmlns="http://www.w3.org/2000/svg" width="670.251" height="764.562" viewBox="0 0 177.337 202.29">
    <g transform="matrix(-1 0 0 1 108.323 .693)">
        <path d="M83.621.012c-26.402.525-56.375 97.4-65.166 153.361-1.747 7.014-2.621 14.27-2.621 21.719 0 1.462.03 2.919.072 4.37 0 .04-.004.086-.004.124l.008-.002q.08 2.645.256 5.266c-7.5-3.843-14.137-6.516-15.742-4.932-2.622 2.587 7.33 15.98 18.015 28.81-7.117-2.197-12.995-3.386-14.13-1.765-1.937 2.765 9.042 13.29 21.275 23.726-6.294-.804-11.11-.848-11.813.721-1.49 3.329 14.457 13.64 30.235 22.846 29.383 33.703 83.303 55.836 168.97 55.836 91.214 0 143.862-23.013 171.436-56.674 15.29-8.984 30.233-18.781 28.79-22.008-.703-1.57-5.518-1.525-11.813-.72 12.232-10.436 23.212-20.962 21.275-23.727-1.136-1.622-7.014-.433-14.133 1.766 10.686-12.832 20.64-26.224 18.018-28.811-1.678-1.655-8.849 1.343-16.758 5.463q.329-5.117.328-10.29c0-8.916-1.21-17.621-3.676-25.995C396.858 92.625 367.731.524 341.986.012c-24.695-.492-45.981 14.467-74.015 64.12-16.733-1.915-35.039-2.835-54.994-2.61-19.842.223-38.077 1.47-54.774 3.62C129.89 14.686 108.483-.482 83.621.013"
              style="display:inline;fill:#000500;fill-opacity:1;stroke-width:.99999994"
              transform="translate(-69.014 -.693)scale(.26458)"/>
        <path d="M-16.97 42.908c-.066 7.285-8.046 16.1-17.971 16.1s-17.602-7.216-17.972-16.1c-.283-6.813 8.046-16.1 17.972-16.1 9.925 0 18.032 9.287 17.97 16.1"
              style="display:inline;fill:#fff;fill-opacity:1;stroke-width:.3133437"/>
        <circle cx="-34.941" cy="40.524" r="11.108"
                style="display:inline;fill:#000;fill-opacity:1;stroke-width:.52135074"/>
        <path d="M-6.682 42.908c.066 7.285 8.046 16.1 17.972 16.1 9.925 0 17.601-7.216 17.97-16.1.284-6.813-8.045-16.1-17.97-16.1-9.926 0-18.033 9.287-17.972 16.1"
              style="display:inline;fill:#fff;fill-opacity:1;stroke-width:.3133437"/>
        <circle cx="-11.29" cy="40.524" r="11.108"
                style="display:inline;fill:#000;fill-opacity:1;stroke-width:.52135074" transform="scale(-1 1)"/>
        <circle cx="-42.392" cy="32.522" r="2.472"
                style="display:inline;opacity:1;vector-effect:none;fill:#fff;fill-opacity:1;stroke-width:.29658532;stroke-linecap:butt;stroke-linejoin:miter;stroke-miterlimit:4;stroke-dasharray:none;stroke-dashoffset:0;stroke-opacity:1"/>
        <circle cx="4.039" cy="32.817" r="2.272"
                style="display:inline;opacity:1;vector-effect:none;fill:#fff;fill-opacity:1;stroke-width:.29658532;stroke-linecap:butt;stroke-linejoin:miter;stroke-miterlimit:4;stroke-dasharray:none;stroke-dashoffset:0;stroke-opacity:1"/>
        <path d="M83.99.625c-3.267.342-6.543 1.205-9.33 2.992-3.371 2.245-5.8 5.734-7.096 9.542-1.497 4.36-1.593 9.247.025 13.587.293.78.876 1.575 1.753 1.71 1.049.192 2.127-.52 2.474-1.507.853-1.648 1.19-3.492 1.836-5.22.84-2.614 1.722-5.282 3.371-7.513 2.262-2.898 6.047-4.598 9.721-4.172 2.564.354 4.836 2.04 6.13 4.252 2.38 3.484 3.718 7.612 4.148 11.792.371 3.175.628 6.38.395 9.575-.11 1.896-.18 3.796-.15 5.696-.014 3.343-.427 6.667-.77 9.988-.406 3.661-1.215 7.26-2.015 10.852-1.296 5.582-3.015 11.108-5.664 16.209-.86 1.606-1.738 3.223-2.917 4.622-.746.84-1.763 1.484-2.898 1.605-1.383.17-2.77-.066-4.145-.202-8.81-1.002-17.577-2.405-26.425-3.038-4.052-.272-8.11-.451-12.165-.664-7.76-.388-15.518-.82-23.269-1.37A526 526 0 0 1-.809 77.805c-4.217-.417-8.48-.86-12.709-.34-3.31.417-6.6 1.503-9.284 3.527-3.047 2.311-5.181 5.711-6.183 9.383-1.463 4.992-2.445 10.16-2.484 15.374-.011 3.83.642 7.63 1.563 11.338.867 3.53 1.905 7.014 2.891 10.512 2.03 7.076 4.09 14.163 5.376 21.42 1.771 9.64 2.998 19.369 4.234 29.09.893 7.101 1.74 14.209 2.655 21.308.1.564.356 1.111.78 1.503.312.133.561-.19.784-.355.856-.773 1.303-1.867 1.828-2.868 1.628-3.333 2.89-6.83 4.066-10.343 2.546-8.025 4.106-16.329 5.18-24.668.397-3.023.775-6.049 1.15-9.074.148-.308.706-.11.627.222l4.02 46.098c.2.495.507.95.915 1.297 1.173-.558 1.877-1.718 2.447-2.832 3.356-6.225 6.707-12.48 9.247-19.093 1.76-4.513 2.743-9.282 3.482-14.056.596-3.89 1.167-7.784 1.859-11.659.565-3.18 1.207-6.346 1.999-9.477a.9.9 0 0 1 .741-.858c.904-.31 1.867-.365 2.797-.561 7.285-1.188 14.693-1.442 22.06-1.223 3.059.133 6.138.572 9.007 1.677 1.098.605 1.706 1.766 2.2 2.869 1.07 2.612 1.503 5.42 2.021 8.178.597 3.42 1.16 6.88 2.425 10.132 1.432 3.94 3.136 7.815 3.925 11.953.496 3.12.085 6.281-.205 9.4l-1.262 12.647c.208 1.1 1.673 1.704 2.595 1.07 1.862-1.714 3.049-3.996 4.149-6.24 3.35-6.879 5.95-14.09 8.374-21.337.42-1.241.839-2.483 1.321-3.702.618-.736 1.936-.553 2.385.278 1.974 2.643 3.839 5.365 5.73 8.067 1.453 2.114 2.847 4.27 4.13 6.493.767 2.277.678 4.725.453 7.084a3025 3025 0 0 1-1.055 10.383c.137 1.06 1.649 1.568 2.406.82 1.049-.995 1.951-2.133 2.806-3.296 2.529-3.548 4.116-7.713 4.866-11.991 2.284-11.068 2.744-22.484 1.635-33.722-.754-8.654-1.697-17.296-2.15-25.974-.194-3.759-.304-7.523-.231-11.288.096-5.734.455-11.46.73-17.187.745-14.305 1.519-28.609 2.188-42.918.248-5.564.483-11.13.641-16.698.073-5.94-.402-11.93-1.977-17.676-1.157-4.218-2.886-8.332-5.504-11.86C98.719 5.81 95.869 3.51 92.58 2.2 89.865 1.09 86.919.573 83.989.625"
              style="display:inline;fill:#000;stroke:none;stroke-width:.65926057"/>
    </g>
</svg>
